<svg width="37" height="37" viewBox="0 0 37 37" fill="none" xmlns="http://www.w3.org/2000/svg">
<circle cx="18.5" cy="18.5" r="18.5" fill="#00944C"/>
<path d="M16.8646 4.00015C17.3368 4.00092 17.8183 4.00475 18.234 4.01406C18.9633 4.03038 20.2929 4.20484 21.237 4.34133C21.9574 4.44548 22.66 4.64391 23.3569 4.85423C23.5069 4.89949 23.6719 4.94749 23.8511 4.99719C25.5041 5.45565 27.6462 6.66965 28.5386 7.20036C28.7222 7.30955 28.9574 7.73259 28.9574 7.94623V11.3869V12.37C28.9574 12.6741 27.7844 11.4727 26.89 10.5125C26.2248 9.79834 25.4408 9.20289 24.5614 8.77962C24.0892 8.55235 23.5941 8.37593 23.0846 8.25333L21.8085 7.94626L19.4252 7.56392C18.9723 7.49124 18.5142 7.45473 18.0554 7.45473H17.3502C16.9208 7.45473 16.4939 7.52153 16.085 7.65273L15.9606 7.69263C15.4406 7.85948 14.9656 8.14315 14.5721 8.52191C14.2919 8.79168 14.0525 9.10321 13.9021 9.46197C13.7717 9.7731 13.6383 10.1527 13.6383 10.4039C13.6383 10.8954 13.6383 11.8784 14.1489 12.37C14.4557 12.6652 15.3151 13.1378 15.9526 13.4681C16.4484 13.7251 16.9718 13.9224 17.5083 14.0773L21.8085 15.3191L26.3321 16.6589C27.7007 17.0642 28.8898 17.9249 29.7026 19.0983C30.2209 19.8467 30.5698 20.699 30.7251 21.596L30.7923 21.9839C30.9299 22.7785 30.9397 23.5901 30.8213 24.3878C30.6047 25.8469 29.9668 27.211 28.9858 28.3126L28.6545 28.6847C27.8432 29.5958 26.8596 30.3373 25.7603 30.8663L24.3617 31.5394C24.3617 31.5394 22.8395 32.2333 21.8085 32.5225L20.9561 32.6819C19.8312 32.8923 18.6759 32.9071 17.5453 32.7295C16.1573 32.5115 16.1915 32.5225 16.1915 32.5225L13.1277 31.5394L9.55319 30.0649L8.83934 29.7213C8.02709 29.3304 7.51064 28.5087 7.51064 27.6072V26.1327V23.5186C7.51064 23.3335 7.66067 23.1835 7.84574 23.1835C7.95568 23.1835 8.05863 23.2374 8.12122 23.3278L8.87926 24.4223C8.98785 24.5791 9.11177 24.7247 9.24918 24.857L10.1305 25.7054C10.7641 26.3152 11.4754 26.8389 12.246 27.2627L13.2784 27.8306C14.1935 28.334 15.1819 28.6908 16.2074 28.8883L16.2762 28.9015C16.8991 29.0214 17.5321 29.0818 18.1666 29.0818H18.626C19.0449 29.0818 19.4631 29.0485 19.8767 28.9821L21.1303 28.781C21.9043 28.6568 22.6218 28.2989 23.1866 27.7553L23.3908 27.5587C23.6934 27.2675 23.9227 26.9089 24.0601 26.5121L24.1064 26.3783C24.2718 25.9008 24.2718 25.3815 24.1064 24.9039C23.941 24.4263 23.6197 24.0181 23.1943 23.7451L22.3191 23.1835L21.0906 22.5922C20.549 22.3316 19.9851 22.1203 19.4056 21.9609L16.7021 21.2174L13.6383 20.2344L12.0193 19.611C11.3991 19.3722 10.8123 19.0544 10.2734 18.6653L10.2166 18.6243C9.44131 18.0646 8.7824 17.3594 8.2766 16.5479L8.08507 16.2407C7.70511 15.6311 7.43585 14.9592 7.28973 14.2559C7.09914 13.3386 7.12251 12.3898 7.35801 11.483L7.51064 10.8954L7.57287 10.7157C7.87042 9.85644 8.28377 9.04181 8.80148 8.29429L9.04255 7.94623C9.71505 6.97524 10.5943 6.16529 11.6171 5.57457L12.617 4.99707L12.6726 4.97031C13.9815 4.34029 15.4119 3.99778 16.8646 4.00015Z" fill="white"/>
</svg>
