<svg width="218" height="54" viewBox="0 0 218 54" fill="none" xmlns="http://www.w3.org/2000/svg">
<circle cx="26.5" cy="27.5" r="26.5" fill="#00944C"/>
<path d="M23.2039 6.731C24.1498 6.72759 25.2375 6.73013 26.1191 6.74987C27.2916 6.77611 29.5473 7.08771 30.8897 7.28748C31.6097 7.39463 32.3114 7.59125 33.0048 7.81286C33.3242 7.91495 33.7131 8.03278 34.1651 8.15813C36.5329 8.81485 39.6014 10.5538 40.8797 11.314C41.1427 11.4704 41.4797 12.0764 41.4797 12.3824V17.311V18.7191C41.4797 19.164 39.7276 17.3602 38.4375 15.9717C37.539 15.0047 36.4786 14.1999 35.2892 13.6275L35.1258 13.5489C34.4871 13.2415 33.8176 13.0029 33.1285 12.8371L31.2393 12.3825L27.6375 11.8047C27.1137 11.7206 26.584 11.6784 26.0535 11.6784H24.8531C24.2379 11.6784 23.6265 11.7741 23.0407 11.962L22.8626 12.0192C22.1177 12.2582 21.4373 12.6645 20.8737 13.2071C20.4722 13.5935 20.1293 14.0397 19.9139 14.5536C19.727 14.9993 19.536 15.543 19.536 15.9028C19.536 16.6069 19.536 18.015 20.2675 18.7191C20.7614 19.1945 22.2557 19.9909 23.1743 20.4581C23.6721 20.7113 24.1944 20.9092 24.731 21.0642L31.2393 22.9436L37.719 24.8627C39.6795 25.4434 41.3828 26.6762 42.547 28.3571C43.2894 29.429 43.7893 30.65 44.0117 31.9348L44.1312 32.6248C44.3129 33.6741 44.3258 34.7456 44.1695 35.799L44.1123 36.1845C43.8263 38.1111 42.984 39.9122 41.6888 41.3667L40.615 42.5726C39.7372 43.5584 38.6729 44.3606 37.4835 44.9331L34.8966 46.1781C34.8966 46.1781 32.7161 47.172 31.2393 47.5863L29.2821 47.9523C28.1572 48.1627 27.0023 48.1777 25.8718 47.9993C23.1328 47.5669 23.1933 47.5863 23.1933 47.5863L18.8046 46.1781L13.6844 44.0659L12.6618 43.5738C11.4983 43.0138 10.7586 41.8367 10.7586 40.5455V38.4333V34.6888C10.7586 34.4237 10.9735 34.2088 11.2386 34.2088C11.396 34.2088 11.5435 34.2861 11.6332 34.4155L12.719 35.9833C12.8746 36.2079 13.0521 36.4165 13.2489 36.6059L14.9242 38.2185C15.5578 38.8284 16.2691 39.3521 17.0397 39.7759L19.6178 41.194C20.5329 41.6973 21.5212 42.0542 22.5468 42.2517L23.7196 42.4774C24.3426 42.5974 24.9756 42.6577 25.61 42.6577H26.785C27.3155 42.6577 27.8452 42.6155 28.369 42.5315L30.2679 42.2269C31.3765 42.049 32.4043 41.5363 33.2133 40.7576L33.5059 40.476C33.9392 40.0589 34.2677 39.5452 34.4645 38.9768L34.5309 38.7852C34.7678 38.1011 34.7678 37.3573 34.5309 36.6732C34.2939 35.989 33.8338 35.4043 33.2244 35.0133L31.9707 34.2088L29.8589 33.1924C29.3174 32.9318 28.7534 32.7205 28.1739 32.5611L23.9247 31.3925L19.536 29.9844L17.0882 29.0419C16.2852 28.7327 15.5256 28.3212 14.828 27.8176L14.5463 27.6143C13.4941 26.8547 12.5998 25.8975 11.9133 24.7962L11.8557 24.7038L11.5814 24.2637C11.0371 23.3905 10.6514 22.428 10.4421 21.4206C10.1691 20.1067 10.2026 18.7475 10.5399 17.4487L10.7586 16.6069L11.0416 15.7895C11.3392 14.9303 11.7525 14.1157 12.2702 13.3682L12.9529 12.3824L13.1387 12.1142C13.9797 10.9 15.0792 9.88708 16.3583 9.14836L18.0731 8.15797L19.012 7.70606C20.3209 7.07605 21.7513 6.73623 23.2039 6.731Z" fill="white"/>
<path d="M66.651 41.328C64.5463 41.328 62.8653 40.7403 61.608 39.565C60.378 38.3897 59.763 36.8043 59.763 34.809V26.322C59.763 24.3813 60.378 22.8097 61.608 21.607C62.8653 20.4043 64.5463 19.803 66.651 19.803C68.045 19.803 69.2613 20.0763 70.3 20.623C71.366 21.1423 72.1723 21.8667 72.719 22.796C73.293 23.698 73.58 24.723 73.58 25.871V26.404C73.58 26.6773 73.4433 26.814 73.17 26.814L70.054 26.937C69.7807 26.937 69.644 26.8003 69.644 26.527V26.117C69.644 25.3243 69.357 24.641 68.783 24.067C68.209 23.493 67.4983 23.206 66.651 23.206C65.7763 23.206 65.0657 23.5203 64.519 24.149C63.9723 24.7777 63.699 25.584 63.699 26.568V34.563C63.699 35.547 63.9723 36.3533 64.519 36.982C65.0657 37.6107 65.7763 37.925 66.651 37.925C67.4983 37.925 68.209 37.638 68.783 37.064C69.357 36.49 69.644 35.8067 69.644 35.014V34.604C69.644 34.3307 69.7807 34.194 70.054 34.194L73.17 34.235C73.4433 34.235 73.58 34.3717 73.58 34.645V35.26C73.58 37.0367 72.9513 38.499 71.694 39.647C70.4367 40.7677 68.7557 41.328 66.651 41.328ZM83.6285 41.328C81.4965 41.328 79.8019 40.7403 78.5445 39.565C77.3145 38.3623 76.6995 36.777 76.6995 34.809V26.322C76.6995 24.3813 77.3282 22.8097 78.5855 21.607C79.8429 20.4043 81.5239 19.803 83.6285 19.803C85.7605 19.803 87.4552 20.4043 88.7125 21.607C89.9699 22.8097 90.5985 24.3813 90.5985 26.322V34.809C90.5985 36.777 89.9699 38.3623 88.7125 39.565C87.4552 40.7403 85.7605 41.328 83.6285 41.328ZM83.6285 37.884C84.5032 37.884 85.2275 37.5833 85.8015 36.982C86.3755 36.3533 86.6625 35.5333 86.6625 34.522V26.568C86.6625 25.584 86.3755 24.7777 85.8015 24.149C85.2275 23.5203 84.5032 23.206 83.6285 23.206C82.7539 23.206 82.0295 23.5203 81.4555 24.149C80.9089 24.7777 80.6355 25.584 80.6355 26.568V34.522C80.6355 35.5333 80.9089 36.3533 81.4555 36.982C82.0295 37.5833 82.7539 37.884 83.6285 37.884ZM102.604 22.591C102.604 22.8643 102.468 23.001 102.194 23.001H99.3245C99.2151 23.001 99.1605 23.0557 99.1605 23.165V34.686C99.1605 35.7793 99.3518 36.5447 99.7345 36.982C100.117 37.392 100.718 37.5833 101.538 37.556H101.907C102.181 37.556 102.317 37.6927 102.317 37.966V40.59C102.317 40.8633 102.181 41 101.907 41H100.636C98.8871 41 97.5615 40.6583 96.6595 39.975C95.7848 39.2917 95.3475 37.9933 95.3475 36.08V23.165C95.3475 23.0557 95.2928 23.001 95.1835 23.001H93.5845C93.3111 23.001 93.1745 22.8643 93.1745 22.591V20.541C93.1745 20.2677 93.3111 20.131 93.5845 20.131H95.1835C95.2928 20.131 95.3475 20.0763 95.3475 19.967V15.334C95.3475 15.0607 95.4841 14.924 95.7575 14.924H98.7505C99.0238 14.924 99.1605 15.0607 99.1605 15.334V19.967C99.1605 20.0763 99.2151 20.131 99.3245 20.131H102.194C102.468 20.131 102.604 20.2677 102.604 20.541V22.591ZM113.895 22.591C113.895 22.8643 113.759 23.001 113.485 23.001H110.615C110.506 23.001 110.451 23.0557 110.451 23.165V34.686C110.451 35.7793 110.643 36.5447 111.025 36.982C111.408 37.392 112.009 37.5833 112.829 37.556H113.198C113.472 37.556 113.608 37.6927 113.608 37.966V40.59C113.608 40.8633 113.472 41 113.198 41H111.927C110.178 41 108.852 40.6583 107.95 39.975C107.076 39.2917 106.638 37.9933 106.638 36.08V23.165C106.638 23.0557 106.584 23.001 106.474 23.001H104.875C104.602 23.001 104.465 22.8643 104.465 22.591V20.541C104.465 20.2677 104.602 20.131 104.875 20.131H106.474C106.584 20.131 106.638 20.0763 106.638 19.967V15.334C106.638 15.0607 106.775 14.924 107.048 14.924H110.041C110.315 14.924 110.451 15.0607 110.451 15.334V19.967C110.451 20.0763 110.506 20.131 110.615 20.131H113.485C113.759 20.131 113.895 20.2677 113.895 20.541V22.591ZM132.452 41.328C130.238 41.328 128.447 40.672 127.081 39.36C125.741 38.048 125.072 36.3123 125.072 34.153V19.147C125.072 16.9877 125.741 15.252 127.081 13.94C128.447 12.628 130.238 11.972 132.452 11.972C134.666 11.972 136.456 12.628 137.823 13.94C139.189 15.252 139.873 17.0013 139.873 19.188V20.91C139.873 21.1833 139.736 21.32 139.463 21.32H136.347C136.073 21.32 135.937 21.1833 135.937 20.91V19.106C135.937 17.9853 135.609 17.0833 134.953 16.4C134.324 15.7167 133.49 15.375 132.452 15.375C131.413 15.375 130.566 15.7167 129.91 16.4C129.281 17.0833 128.967 17.9853 128.967 19.106V34.194C128.967 35.3147 129.281 36.2167 129.91 36.9C130.566 37.5833 131.413 37.925 132.452 37.925C133.49 37.925 134.324 37.5833 134.953 36.9C135.609 36.2167 135.937 35.3147 135.937 34.194V29.684C135.937 29.5747 135.882 29.52 135.773 29.52H132.657C132.383 29.52 132.247 29.3833 132.247 29.11V26.568C132.247 26.2947 132.383 26.158 132.657 26.158H139.463C139.736 26.158 139.873 26.2947 139.873 26.568V34.153C139.873 36.3123 139.189 38.048 137.823 39.36C136.456 40.672 134.666 41.328 132.452 41.328ZM157.02 31.775C157.02 32.0483 156.884 32.185 156.61 32.185H147.344C147.235 32.185 147.18 32.2397 147.18 32.349V34.563C147.18 35.547 147.454 36.3533 148 36.982C148.547 37.6107 149.258 37.925 150.132 37.925C150.898 37.925 151.54 37.6927 152.059 37.228C152.579 36.7633 152.907 36.162 153.043 35.424C153.125 35.2053 153.276 35.096 153.494 35.096L156.528 35.26C156.665 35.26 156.761 35.301 156.815 35.383C156.897 35.465 156.925 35.5607 156.897 35.67C156.706 37.4467 156.023 38.8407 154.847 39.852C153.699 40.836 152.128 41.328 150.132 41.328C148.028 41.328 146.347 40.7403 145.089 39.565C143.859 38.3897 143.244 36.818 143.244 34.85V26.322C143.244 24.3813 143.859 22.8097 145.089 21.607C146.347 20.4043 148.028 19.803 150.132 19.803C152.264 19.803 153.945 20.4043 155.175 21.607C156.405 22.8097 157.02 24.3813 157.02 26.322V31.775ZM150.132 23.206C149.258 23.206 148.547 23.5203 148 24.149C147.454 24.7777 147.18 25.584 147.18 26.568V28.741C147.18 28.8503 147.235 28.905 147.344 28.905H152.961C153.071 28.905 153.125 28.8503 153.125 28.741V26.568C153.125 25.584 152.852 24.7777 152.305 24.149C151.759 23.5203 151.034 23.206 150.132 23.206ZM168.623 19.926C169.306 19.926 169.894 20.0763 170.386 20.377C170.577 20.4863 170.646 20.664 170.591 20.91L169.976 24.026C169.949 24.272 169.785 24.354 169.484 24.272C169.129 24.1353 168.746 24.067 168.336 24.067C168.172 24.067 167.926 24.0943 167.598 24.149C166.751 24.231 166.04 24.6957 165.466 25.543C164.919 26.3903 164.646 27.4153 164.646 28.618V40.59C164.646 40.8633 164.509 41 164.236 41H161.12C160.847 41 160.71 40.8633 160.71 40.59V20.541C160.71 20.2677 160.847 20.131 161.12 20.131H164.236C164.509 20.131 164.646 20.2677 164.646 20.541V22.919C164.646 23.001 164.66 23.0557 164.687 23.083C164.742 23.083 164.783 23.042 164.81 22.96C165.603 20.9373 166.874 19.926 168.623 19.926ZM179.107 41.246C177.057 41.246 175.431 40.754 174.228 39.77C173.053 38.7587 172.465 37.4057 172.465 35.711V35.342C172.465 35.0687 172.602 34.932 172.875 34.932H175.786C176.06 34.932 176.196 35.0687 176.196 35.342V35.629C176.196 36.367 176.483 36.9957 177.057 37.515C177.631 38.007 178.342 38.253 179.189 38.253C180.009 38.253 180.665 38.007 181.157 37.515C181.677 37.023 181.936 36.3943 181.936 35.629C181.936 35.0277 181.759 34.522 181.403 34.112C181.048 33.702 180.624 33.3877 180.132 33.169C179.668 32.923 178.943 32.595 177.959 32.185C176.893 31.7203 176.005 31.2693 175.294 30.832C174.611 30.3947 173.996 29.766 173.449 28.946C172.903 28.126 172.629 27.0873 172.629 25.83C172.629 23.9713 173.203 22.5227 174.351 21.484C175.527 20.4453 177.098 19.926 179.066 19.926C181.089 19.926 182.674 20.459 183.822 21.525C184.998 22.591 185.585 24.0397 185.585 25.871V25.994C185.585 26.2673 185.449 26.404 185.175 26.404H182.346C182.073 26.404 181.936 26.2673 181.936 25.994V25.707C181.936 24.969 181.677 24.3403 181.157 23.821C180.638 23.3017 179.968 23.042 179.148 23.042C178.301 23.042 177.631 23.3017 177.139 23.821C176.647 24.3403 176.401 24.969 176.401 25.707C176.401 26.281 176.565 26.7593 176.893 27.142C177.221 27.5247 177.618 27.839 178.082 28.085C178.547 28.3037 179.285 28.6317 180.296 29.069C181.417 29.561 182.346 30.0393 183.084 30.504C183.822 30.9413 184.465 31.57 185.011 32.39C185.585 33.21 185.872 34.235 185.872 35.465C185.872 37.2417 185.257 38.6493 184.027 39.688C182.825 40.7267 181.185 41.246 179.107 41.246ZM197.177 22.591C197.177 22.8643 197.04 23.001 196.767 23.001H193.897C193.787 23.001 193.733 23.0557 193.733 23.165V34.686C193.733 35.7793 193.924 36.5447 194.307 36.982C194.689 37.392 195.291 37.5833 196.111 37.556H196.48C196.753 37.556 196.89 37.6927 196.89 37.966V40.59C196.89 40.8633 196.753 41 196.48 41H195.209C193.459 41 192.134 40.6583 191.232 39.975C190.357 39.2917 189.92 37.9933 189.92 36.08V23.165C189.92 23.0557 189.865 23.001 189.756 23.001H188.157C187.883 23.001 187.747 22.8643 187.747 22.591V20.541C187.747 20.2677 187.883 20.131 188.157 20.131H189.756C189.865 20.131 189.92 20.0763 189.92 19.967V15.334C189.92 15.0607 190.056 14.924 190.33 14.924H193.323C193.596 14.924 193.733 15.0607 193.733 15.334V19.967C193.733 20.0763 193.787 20.131 193.897 20.131H196.767C197.04 20.131 197.177 20.2677 197.177 20.541V22.591ZM200.555 41C200.281 41 200.145 40.8633 200.145 40.59V12.71C200.145 12.4367 200.281 12.3 200.555 12.3H203.671C203.944 12.3 204.081 12.4367 204.081 12.71V40.59C204.081 40.8633 203.944 41 203.671 41H200.555Z" fill="#555555"/>
</svg>
